<svg width="27" height="23" viewBox="0 0 27 23" fill="none" xmlns="http://www.w3.org/2000/svg">
<path d="M19.3443 0.323765C17.092 0.311728 14.9508 1.3009 13.5 3.02373C12.0582 1.28913 9.91111 0.29714 7.65565 0.323765C3.42754 0.323765 0 3.7513 0 7.97942C0 15.225 12.6456 22.2997 13.1582 22.5731C13.3651 22.7113 13.6349 22.7113 13.8418 22.5731C14.3544 22.2997 27 15.3275 27 7.97942C27 3.7513 23.5724 0.323765 19.3443 0.323765ZM13.5 21.206C11.5177 20.044 1.36709 13.8579 1.36709 7.97942C1.36709 4.50635 4.18258 1.69079 7.65572 1.69079C9.78257 1.66286 11.773 2.73563 12.919 4.52748C13.1517 4.84835 13.6005 4.91985 13.9214 4.6871C13.9827 4.64261 14.0366 4.58878 14.081 4.52748C15.9817 1.62066 19.879 0.80504 22.7858 2.70574C24.5653 3.86932 25.6364 5.85323 25.6328 7.97935C25.6329 13.9262 15.4822 20.0781 13.5 21.206Z" fill="white"/>
<path d="M13.5 21.206C11.5177 20.044 1.36709 13.8579 1.36709 7.97942C1.36709 4.50635 4.18258 1.69079 7.65572 1.69079C9.78257 1.66286 11.773 2.73563 12.919 4.52748C13.1517 4.84835 13.6005 4.91985 13.9214 4.6871C13.9827 4.64261 14.0366 4.58878 14.081 4.52748C15.9817 1.62066 19.879 0.80504 22.7858 2.70574C24.5653 3.86932 25.6364 5.85323 25.6328 7.97935C25.6329 13.9262 15.4822 20.0781 13.5 21.206Z" fill="white"/>
</svg>
