<svg width="27" height="27" viewBox="0 0 27 27" fill="none" xmlns="http://www.w3.org/2000/svg">
<path d="M25.8828 9.97977C25.8865 7.76911 24.7729 5.70633 22.9226 4.4965C19.9021 2.52146 15.853 3.36724 13.8754 6.38505C13.8472 6.42309 13.8132 6.45672 13.7745 6.48476C13.5672 6.63513 13.2779 6.59056 13.1252 6.38592C11.9322 4.52584 9.86403 3.41233 7.65408 3.44079C4.04363 3.44168 1.11709 6.36883 1.11709 9.97942C1.11709 11.5199 1.78096 13.0585 2.77829 14.5046C3.77711 15.9529 5.12458 17.3291 6.52596 18.5499C9.32896 20.9918 12.3779 22.8381 13.3735 23.4217L13.4981 23.4947L13.6236 23.4233C14.6213 22.8556 17.6706 21.0263 20.4738 18.5885C21.8754 17.3696 23.223 15.9922 24.2219 14.5378C25.2194 13.0855 25.8827 11.5365 25.8828 9.97977ZM25.8828 9.97977L25.6328 9.97935L25.8828 9.97935C25.8828 9.97949 25.8828 9.97963 25.8828 9.97977ZM7.65572 3.94081L7.659 3.94077C9.69941 3.91397 11.6089 4.94315 12.7084 6.66218L12.7123 6.66833L12.7166 6.67425C13.0304 7.10689 13.6355 7.2033 14.0682 6.88946L14.0682 6.88943C14.1507 6.82955 14.2234 6.75697 14.2834 6.67418L14.2837 6.67434L14.2902 6.6643C16.1154 3.87304 19.8577 3.08984 22.649 4.91498C24.3577 6.0323 25.3862 7.93734 25.3828 9.97894V9.97936C25.3829 11.3959 24.7774 12.8459 23.8098 14.2547C22.8435 15.6616 21.5296 17.0077 20.1457 18.2112C17.4869 20.5234 14.5977 22.2853 13.5017 22.9169C12.4045 22.2684 9.51421 20.49 6.85439 18.1729C5.47034 16.9672 4.15627 15.622 3.1899 14.2207C2.22205 12.8173 1.61709 11.3783 1.61709 9.97942C1.61709 6.64442 4.32066 3.94079 7.65572 3.94081ZM19.3429 2.57376H19.3443C23.4343 2.57376 26.75 5.88938 26.75 9.97942C26.75 11.7451 25.9895 13.5084 24.8119 15.1771C23.6354 16.8441 22.0564 18.3973 20.4528 19.7374C17.2457 22.4178 13.9727 24.2199 13.7241 24.3525L13.7132 24.3583L13.7029 24.3652C13.58 24.4473 13.4199 24.4473 13.2971 24.3652L13.2868 24.3583L13.2759 24.3525C13.0287 24.2207 9.75529 22.393 6.54763 19.6994C4.94388 18.3527 3.36456 16.7961 2.18794 15.1336C1.00993 13.469 0.25 11.7188 0.25 9.97942C0.25 5.88937 3.56561 2.57376 7.65565 2.57378L7.6586 2.57375C9.83872 2.54801 11.9141 3.50686 13.3077 5.18353L13.4987 5.41334L13.6912 5.18477C15.0942 3.5187 17.1648 2.56212 19.3429 2.57376Z" fill="white" stroke="black" stroke-width="0.5"/>
</svg>
