<svg width="35" height="35" viewBox="0 0 35 35" fill="none" xmlns="http://www.w3.org/2000/svg">
<path d="M25.0759 3.01227C22.1563 2.99667 19.3807 4.27893 17.5 6.51223C15.631 4.26367 12.8477 2.97776 9.924 3.01227C4.4431 3.01227 0 7.45538 0 12.9363C0 22.3287 16.3924 31.4995 17.057 31.854C17.3251 32.0332 17.6748 32.0332 17.943 31.854C18.6076 31.4995 35 22.4616 35 12.9363C35 7.45538 30.5568 3.01227 25.0759 3.01227ZM17.5 30.0818C14.9303 28.5755 1.77215 20.5566 1.77215 12.9363C1.77215 8.43414 5.42187 4.78434 9.92408 4.78434C12.6811 4.74813 15.2612 6.13877 16.7468 8.46153C17.0485 8.87748 17.6303 8.97017 18.0462 8.66845C18.1257 8.61078 18.1956 8.54099 18.2532 8.46153C20.717 4.69344 25.7691 3.63615 29.5372 6.10002C31.8439 7.60836 33.2323 10.1801 33.2278 12.9362C33.2278 20.6451 20.0696 28.6198 17.5 30.0818Z" fill="black"/>
</svg>
