<svg width="50" height="50" viewBox="0 0 50 50" fill="none" xmlns="http://www.w3.org/2000/svg">
<g clip-path="url(#clip0_152_179)">
<path d="M15.9499 39.2217C13.067 39.2217 10.73 41.5588 10.73 44.4416C10.73 47.3245 13.0671 49.6615 15.9499 49.6615C18.8328 49.6615 21.1698 47.3244 21.1698 44.4416C21.1699 41.5588 18.8328 39.2217 15.9499 39.2217ZM15.9499 47.3416C14.3483 47.3416 13.05 46.0433 13.05 44.4417C13.05 42.8401 14.3483 41.5418 15.9499 41.5418C17.5515 41.5418 18.8498 42.8401 18.8498 44.4417C18.8499 46.0433 17.5515 47.3416 15.9499 47.3416Z" fill="black"/>
<path d="M37.9899 39.2217C35.107 39.2217 32.77 41.5588 32.77 44.4416C32.77 47.3245 35.1071 49.6615 37.9899 49.6615C40.8728 49.6615 43.2098 47.3244 43.2098 44.4416C43.2098 41.5588 40.8729 39.2217 37.9899 39.2217ZM37.9899 47.3416C36.3883 47.3416 35.09 46.0433 35.09 44.4417C35.09 42.8401 36.3883 41.5418 37.9899 41.5418C39.5915 41.5418 40.8899 42.8401 40.8899 44.4417C40.89 46.0433 39.5915 47.3416 37.9899 47.3416Z" fill="black"/>
<path d="M49.7636 8.77202C49.522 8.50814 49.1915 8.34295 48.8356 8.30798L11.0779 7.78599L10.034 4.59598C9.29848 2.46351 7.30155 1.02387 5.04595 1H1.15999C0.519327 1 0 1.51933 0 2.15999C0 2.80066 0.519327 3.31998 1.15999 3.31998H5.04595C6.30719 3.34785 7.41778 4.1577 7.82998 5.35L15.1959 27.5638L14.616 28.8977C13.9691 30.5658 14.1634 32.4433 15.138 33.9437C16.1032 35.4173 17.7272 36.3267 19.488 36.3797H42.0498C42.6905 36.3797 43.2098 35.8603 43.2098 35.2197C43.2098 34.579 42.6905 34.0597 42.0498 34.0597H19.4879C18.4935 34.0348 17.5782 33.5117 17.0519 32.6677C16.5314 31.834 16.4245 30.8069 16.7619 29.8837L17.2259 28.8397L41.6437 26.2877C44.3259 25.9923 46.5322 24.0415 47.1537 21.4157L49.9378 9.75783C50.0632 9.42212 49.9966 9.04456 49.7636 8.77202ZM44.8917 20.8938C44.5151 22.5841 43.08 23.8309 41.3538 23.9678L17.2259 26.4617L11.832 10.106L47.3856 10.628L44.8917 20.8938Z" fill="black"/>
<path d="M44.8917 20.8938C44.5151 22.5841 43.08 23.8309 41.3538 23.9678L17.2259 26.4617L11.832 10.106L47.3856 10.628L44.8917 20.8938Z" fill="black"/>
</g>
<defs>
<clipPath id="clip0_152_179">
<rect width="50" height="50" fill="white"/>
</clipPath>
</defs>
</svg>
